<?xml version="1.0" encoding="UTF-8" standalone="no"?>
<!-- Created with Inkscape (http://www.inkscape.org/) -->

<svg
   xmlns:dc="http://purl.org/dc/elements/1.1/"
   xmlns:cc="http://creativecommons.org/ns#"
   xmlns:rdf="http://www.w3.org/1999/02/22-rdf-syntax-ns#"
   xmlns:svg="http://www.w3.org/2000/svg"
   xmlns="http://www.w3.org/2000/svg"
   xmlns:sodipodi="http://sodipodi.sourceforge.net/DTD/sodipodi-0.dtd"
   xmlns:inkscape="http://www.inkscape.org/namespaces/inkscape"
   width="300px"
   height="300px"
   viewBox="0 0 300 300"
   version="1.1"
   id="SVGRoot"
   inkscape:version="0.92.5 (2060ec1f9f, 2020-04-08)"
   sodipodi:docname="cg_logo.svg">
  <defs
     id="defs1555" />
  <sodipodi:namedview
     id="base"
     pagecolor="#ffffff"
     bordercolor="#666666"
     borderopacity="1.0"
     inkscape:pageopacity="0.0"
     inkscape:pageshadow="2"
     inkscape:zoom="1.7066667"
     inkscape:cx="42.187502"
     inkscape:cy="150"
     inkscape:document-units="px"
     inkscape:current-layer="layer1"
     showgrid="false"
     inkscape:window-width="1851"
     inkscape:window-height="1016"
     inkscape:window-x="1989"
     inkscape:window-y="27"
     inkscape:window-maximized="1" />
  <metadata
     id="metadata1558">
    <rdf:RDF>
      <cc:Work
         rdf:about="">
        <dc:format>image/svg+xml</dc:format>
        <dc:type
           rdf:resource="http://purl.org/dc/dcmitype/StillImage" />
        <dc:title />
      </cc:Work>
    </rdf:RDF>
  </metadata>
  <g
     inkscape:label="Layer 1"
     inkscape:groupmode="layer"
     id="layer1">
    <path
       inkscape:connector-curvature="0"
       class="cls-1"
       d="m 288.56676,149.49365 a 12.94933,13.002223 0 0 0 -12.89363,-11.46433 12.53161,12.582796 0 0 0 -11.91895,7.42385 1.8658174,1.8734385 0 0 1 -1.94937,1.21634 c -7.61643,0 -15.23286,0 -22.8493,0 -0.80759,0 -1.78227,0.33554 -2.39493,-0.18175 -0.61265,-0.5173 -0.11139,-1.39809 -0.20886,-2.13908 a 12.698698,12.750567 0 0 1 -0.23671,-1.27226 55.264398,55.490131 0 0 0 -1.3924,-9.78662 87.470635,87.827917 0 0 0 -7.19871,-20.80355 c -0.3481,-0.68507 -0.25063,-1.00663 0.44557,-1.39809 4.1772,-2.4187 8.3544,-4.89331 12.53161,-7.32599 2.96581,-1.73363 5.95947,-3.4393 8.93921,-5.158946 a 0.94683273,0.95070016 0 0 1 1.25316,0 13.22781,13.28184 0 0 0 17.18223,-20.118494 12.53161,12.582796 0 0 0 -10.42908,-3.621049 12.824014,12.876395 0 0 0 -8.062,3.607068 13.08857,13.142032 0 0 0 -3.89873,10.849168 1.5594892,1.5658591 0 0 1 -0.9886,1.677706 q -10.05314,5.788086 -20.0645,11.660057 c -1.89367,1.09051 -1.87974,1.11847 -3.11898,-0.74099 -0.23671,-0.3635 -0.50126,-0.69904 -0.76582,-1.04856 -2.35316,-3.145701 -4.81771,-6.179553 -7.4215,-9.12952 a 73.518776,73.819071 0 0 0 -6.6139,-6.431208 63.535261,63.794777 0 0 0 -9.03669,-6.850634 0.82151663,0.8248722 0 0 1 -0.27848,-1.300222 c 0.73798,-1.216337 1.39241,-2.474617 2.13038,-3.704935 3.45315,-5.997799 6.962,-11.995599 10.37339,-18.02136 0.33417,-0.587197 0.73797,-0.866815 1.3924,-0.671082 a 7.1290935,7.1582129 0 0 0 2.92404,0 12.072117,12.121427 0 0 0 7.68605,-3.551145 12.907558,12.96028 0 0 0 3.64809,-12.736586 12.67085,12.722605 0 0 0 -5.90378,-8.150856 13.924011,13.980885 0 0 0 -8.17339,-1.803534 11.668321,11.715981 0 0 0 -8.57719,4.194265 13.046798,13.100089 0 0 0 -0.61266,17.028718 0.76582059,0.76894866 0 0 1 0,1.020605 q -6.30758,10.961013 -12.61515,21.949988 c -0.36203,0.643121 -0.68228,0.62914 -1.21139,0.349523 a 81.901031,82.235564 0 0 0 -15.62274,-6.165571 90.506069,90.87575 0 0 0 -13.61768,-2.656368 30.716368,30.841832 0 0 1 -4.35822,-0.391464 c -0.68228,-0.181752 -0.79367,-0.447389 -0.79367,-1.034586 V 37.912203 a 1.0999968,1.1044899 0 0 1 0.84937,-1.216337 11.946801,11.995599 0 0 0 5.31897,-4.194266 13.29743,13.351745 0 0 0 -2.71518,-18.538652 13.01895,13.072127 0 0 0 -14.59237,-0.894777 12.53161,12.582796 0 0 0 -6.37719,13.239898 12.308825,12.359102 0 0 0 7.47719,10.234007 1.6708813,1.6777062 0 0 1 1.16962,1.817515 c 0,7.815314 0,15.630629 0,23.459924 0,2.125095 0,2.181018 -2.13038,2.20898 a 53.690985,53.910291 0 0 0 -9.32908,1.118471 79.366861,79.691043 0 0 0 -22.36196,7.535697 c -1.11392,0.601178 -1.62911,0.293598 -2.17215,-0.671083 Q 103.00147,61.525917 96.986291,51.040253 a 1.3924011,1.3980885 0 0 1 0,-1.789553 12.53161,12.582796 0 0 0 2.353158,-9.786619 12.935406,12.988242 0 0 0 -14.174643,-11.114804 12.712622,12.764548 0 0 0 -9.356935,5.033119 13.603758,13.659324 0 0 0 0,16.189864 12.67085,12.722605 0 0 0 10.888576,5.130985 2.6873341,2.6983107 0 0 1 2.993663,1.719649 c 1.782273,3.257546 3.689863,6.431207 5.569604,9.632829 2.04683,3.551145 4.065811,7.116271 6.154416,10.625473 0.54304,0.936719 0.29241,1.398088 -0.52911,1.9014 A 72.251691,72.546811 0 0 0 90.149602,87.041033 87.721267,88.079573 0 0 0 76.768628,102.85341 c -0.375948,0.57322 -0.598733,0.65711 -1.169617,0.32156 Q 64.738283,96.841633 53.849706,90.592177 C 53.250974,90.242655 52.986418,89.865171 53.250974,89.194089 A 2.2974618,2.306846 0 0 0 53.404138,88.047656 13.255658,13.309802 0 0 0 49.143391,78.121227 12.67085,12.722605 0 0 0 37.61431,74.821738 12.921482,12.974261 0 0 0 27.018138,88.187465 12.364521,12.415026 0 0 0 33.980143,99.498001 12.991102,13.044165 0 0 0 47.709218,98.70109 c 0.543036,-0.363503 1.002528,-0.768948 1.810121,-0.279617 q 10.665792,6.263437 21.401204,12.442987 c 0.640505,0.36351 0.918985,0.5872 0.529113,1.39809 a 80.452934,80.781552 0 0 0 -6.043021,15.77044 73.936497,74.238498 0 0 0 -2.784802,17.0427 c 0,1.27226 -0.459492,1.52391 -1.601261,1.50993 -7.574662,0 -15.149324,-0.0979 -22.710062,0 -1.963285,0 -3.202522,-0.39146 -3.759483,-2.34879 a 4.2885953,4.3061125 0 0 0 -0.821516,-1.16041 13.172114,13.225917 0 1 0 -10.749336,21.27891 12.796166,12.848433 0 0 0 12.448065,-8.02503 c 0.306328,-0.6571 0.724049,-0.62914 1.239237,-0.62914 h 7.574662 c 5.653148,0 11.306297,0 16.959445,0 1.099997,0 1.489869,0.3635 1.392401,1.39809 a 17.836658,17.909513 0 0 0 0.20886,3.22958 91.89847,92.273839 0 0 0 1.782273,10.69538 86.06431,86.415848 0 0 0 6.530361,18.73438 c 0.501265,1.04857 0.278481,1.39809 -0.62658,1.92937 q -10.526552,6.02576 -20.983484,12.14938 a 1.267085,1.2722605 0 0 1 -1.615185,0 12.796166,12.848433 0 0 0 -8.883519,-2.48859 12.420218,12.470949 0 0 0 -8.535419,4.04047 13.450594,13.505535 0 0 0 -3.536698,9.59089 13.144266,13.197955 0 0 0 12.698697,12.80649 12.698698,12.750567 0 0 0 11.055665,-5.32672 11.863257,11.911714 0 0 0 2.422778,-9.47904 c -0.111392,-0.6571 0.236708,-0.88079 0.724048,-1.16041 q 10.610096,-6.15159 21.164496,-12.33114 c 0.974681,-0.57322 1.503794,-0.47535 2.11645,0.51729 a 68.450436,68.730029 0 0 0 8.465799,10.76528 85.549122,85.898555 0 0 0 15.650593,13.35175 c 0.62658,0.40544 0.61266,0.727 0.27848,1.3142 -3.982272,6.83665 -7.992387,13.67331 -11.863262,20.57986 a 2.7848021,2.7961769 0 0 1 -3.035435,1.73363 12.253129,12.303179 0 0 0 -9.510099,3.53717 13.520214,13.575439 0 0 0 -0.08354,19.09788 13.283506,13.337764 0 0 0 20.148043,-1.94334 12.684774,12.736586 0 0 0 0.181013,-14.72187 2.4645499,2.4746166 0 0 1 0.09747,-3.1457 q 6.00126,-10.31789 11.90504,-20.71967 c 0.33418,-0.60118 0.57089,-0.6571 1.15569,-0.34952 a 84.463049,84.808046 0 0 0 19.93919,7.13025 90.241513,90.610114 0 0 0 13.24173,1.88742 c 1.01645,0.0699 1.30886,0.30758 1.29493,1.39809 0,8.08095 0,16.1619 0,24.24285 a 1.6430333,1.6497444 0 0 1 -1.11392,1.76159 13.116418,13.169993 0 0 0 5.93163,25.1656 12.768318,12.820471 0 0 0 8.15947,-3.04784 13.213886,13.26786 0 0 0 -3.21644,-22.17368 1.3924011,1.3980885 0 0 1 -0.91899,-1.55188 c 0,-4.05446 0,-8.12289 0,-12.17735 0,-4.05446 0,-8.22076 0,-12.31716 0,-0.44739 -0.30633,-1.18837 0.58481,-1.17439 0.89114,0.014 1.69873,-0.23768 2.56202,-0.27962 a 69.118789,69.401111 0 0 0 11.57085,-1.76159 86.955447,87.310625 0 0 0 19.70248,-6.99044 c 0.55696,-0.26564 0.77974,-0.18176 1.05822,0.32156 0.97468,1.77557 1.99113,3.52318 2.99366,5.28477 3.20252,5.59235 6.39112,11.18471 9.62149,16.66521 0.25064,0.43341 0.30633,0.62914 0,1.06255 a 12.406294,12.456968 0 0 0 -2.61771,6.76675 13.102494,13.156012 0 0 0 15.10755,14.27448 12.643002,12.694643 0 0 0 10.33162,-8.12289 13.130342,13.183974 0 0 0 -13.43667,-18.10525 1.3924011,1.3980885 0 0 1 -1.61519,-0.86681 c -2.01898,-3.60707 -4.1772,-7.15821 -6.21011,-10.73732 -2.0329,-3.57911 -3.8848,-6.80869 -5.88985,-10.1641 -0.61266,-1.04857 -0.55696,-1.64975 0.54303,-2.32083 a 68.492208,68.771972 0 0 0 10.63795,-8.38853 83.906088,84.248811 0 0 0 13.17211,-15.64461 c 0.41772,-0.62914 0.72405,-0.75497 1.3924,-0.40545 2.36708,1.39809 4.76201,2.79618 7.1291,4.19427 4.60884,2.68433 9.17592,5.42458 13.81261,8.03901 a 2.0468296,2.05519 0 0 1 1.30886,2.195 12.977178,13.030185 0 0 0 4.09366,10.63945 13.408822,13.463592 0 0 0 18.10121,0 13.046798,13.100089 0 0 0 3.8848,-12.66668 12.322749,12.373083 0 0 0 -6.6696,-8.76602 12.977178,13.030185 0 0 0 -13.81262,0.81089 c -0.54303,0.36351 -1.01645,0.71303 -1.7405,0.27962 q -10.66579,-6.27742 -21.38728,-12.45697 c -0.71012,-0.40544 -0.79367,-0.75496 -0.45949,-1.39808 a 87.331395,87.688109 0 0 0 6.11264,-16.14793 82.402295,82.738875 0 0 0 2.7848,-16.93085 c 0,-1.11847 0.45949,-1.25828 1.3924,-1.2443 7.92277,0 15.84553,0 23.75437,0 a 2.2139177,2.2229607 0 0 1 2.42277,1.50994 12.796166,12.848433 0 0 0 13.58984,7.11627 13.032874,13.086108 0 0 0 10.91642,-14.9176 z M 258.68584,83.671638 a 4.5253035,4.5437875 0 0 1 4.1772,4.278152 4.3999874,4.4179596 0 0 1 -4.30252,4.124361 4.0797351,4.0963992 0 0 1 -4.1772,-4.194265 4.1772032,4.1942654 0 0 1 4.30252,-4.208248 z m -46.28342,-46.30469 a 4.3860634,4.4039787 0 0 1 4.2886,4.194265 4.246825,4.2641715 0 0 1 -8.49365,0 4.3582153,4.3760169 0 0 1 4.20505,-4.194265 z M 86.306575,45.755479 a 4.1772032,4.1942654 0 0 1 -4.177203,-4.194266 4.3860634,4.4039787 0 0 1 4.177203,-4.264169 4.1775746,4.1946383 0 0 1 0.111392,8.38853 z M 40.023164,92.144056 a 4.1772032,4.1942654 0 1 1 4.177203,-4.194266 4.0936591,4.1103801 0 0 1 -4.163279,4.124361 z M 23.147263,155.50543 a 4.6088475,4.6276728 0 0 1 -4.177203,-4.19427 4.2746713,4.2921316 0 0 1 8.535418,0 c 0.111392,1.98529 -2.32531,4.23621 -4.358215,4.19427 z m 16.848053,63.16563 c -2.172146,0.33554 -4.177204,-2.40471 -4.177204,-4.08242 a 4.5949235,4.6136919 0 0 1 4.177204,-4.29213 4.2746713,4.2921316 0 0 1 4.177203,4.19427 3.954419,3.9705712 0 0 1 -4.177203,4.18028 z m 46.158095,46.38858 a 4.1772032,4.1942654 0 0 1 -4.093659,-4.11038 4.5253035,4.5437875 0 0 1 4.177203,-4.27815 4.1772032,4.1942654 0 0 1 4.177203,4.32009 4.1772032,4.1942654 0 0 1 -4.260747,4.06844 z m 126.262939,-8.38853 a 4.5392275,4.5577684 0 0 1 4.28859,4.19426 4.2607473,4.2781507 0 0 1 -8.52149,0 4.4556834,4.4738831 0 0 1 4.2329,-4.19426 z m 46.19987,-46.3746 a 4.6923916,4.7115581 0 0 1 4.27467,4.19427 c -0.19494,2.41869 -2.1443,4.4599 -4.34429,4.12436 a 4.0518871,4.0684374 0 0 1 -4.17721,-4.04048 4.3303673,4.3480551 0 0 1 4.24683,-4.27815 z M 149.4659,20.296288 a 4.3999874,4.4179596 0 0 1 4.10758,4.306113 4.177205,4.1942672 0 0 1 -8.35441,0 4.1772032,4.1942654 0 0 1 4.24683,-4.306113 z m 0,261.792072 a 4.1772078,4.19427 0 1 1 0,-8.38854 4.1772078,4.19427 0 0 1 0,8.38854 z m 53.34288,-73.74917 a 75.816238,76.125917 0 0 1 -56.79604,21.29289 78.141548,78.460725 0 0 1 -74.785868,-79.20172 c 0.111392,-22.25756 8.688582,-41.29953 24.923979,-56.524713 a 77.807372,78.125184 0 0 1 109.136399,2.600445 c 14.70376,15.183248 22.08349,33.554128 22.27842,55.923538 a 76.247882,76.559324 0 0 1 -24.78474,55.90956 z m 72.68334,-52.86173 a 4.4278354,4.4459213 0 0 1 -4.17721,-4.26417 4.1772032,4.1942654 0 0 1 4.17721,-4.0964 4.0797351,4.0963992 0 0 1 4.1772,4.04048 4.1772032,4.1942654 0 0 1 -4.20505,4.32009 z"
       id="path6"
       style="fill:#808080;stroke-width:1.39524186" />
    <path
       inkscape:connector-curvature="0"
       class="cls-1"
       d="m 163.1532,89.977018 a 13.186038,13.239898 0 1 0 12.3506,13.267862 13.005026,13.058146 0 0 0 -12.3506,-13.267862 z m -0.79367,17.294362 a 3.968343,3.9845521 0 0 1 -4.07974,-4.19427 4.1772032,4.1942654 0 0 1 4.17721,-4.194268 4.4278354,4.4459213 0 0 1 4.1772,4.264168 4.1772032,4.1942654 0 0 1 -4.27467,4.12437 z"
       id="path8"
       style="fill:#808080;stroke-width:1.39524186" />
    <path
       inkscape:connector-curvature="0"
       class="cls-1"
       d="m 97.139455,159.79756 a 13.213886,13.26786 0 1 0 13.102505,13.36572 12.865786,12.918337 0 0 0 -13.102505,-13.36572 z m 0,17.46212 a 4.1775746,4.1946383 0 0 1 0.111392,-8.38853 4.1772032,4.1942654 0 0 1 4.177213,4.37602 4.2746713,4.2921316 0 0 1 -4.316453,4.01251 z"
       id="path10"
       style="fill:#808080;stroke-width:1.39524186" />
    <path
       inkscape:connector-curvature="0"
       class="cls-1"
       d="m 145.01021,146.69747 a 13.22781,13.28184 0 0 0 0,26.56368 13.22781,13.28184 0 1 0 0,-26.56368 z m 0,17.46212 a 4.1772032,4.1942654 0 0 1 -4.1772,-4.32009 4.2885953,4.3061125 0 0 1 4.1772,-4.08242 4.1772032,4.1942654 0 0 1 0,8.38853 z"
       id="path12"
       style="fill:#808080;stroke-width:1.39524186" />
    <path
       inkscape:connector-curvature="0"
       class="cls-1"
       d="m 189.5392,172.98153 a 13.172114,13.225917 0 0 0 -14.25819,13.21194 12.977178,13.030185 0 0 0 13.1025,13.22591 12.796166,12.848433 0 0 0 13.22781,-13.12805 c 0.37594,-7.53569 -6.0291,-12.87639 -12.07212,-13.3098 z m -1.08607,17.39222 a 4.3999874,4.4179596 0 0 1 -4.17721,-4.43194 4.3164433,4.3340742 0 0 1 4.26075,-3.98455 4.1772032,4.1942654 0 0 1 4.10758,4.40398 4.3303673,4.3480551 0 0 1 -4.19112,4.02649 z"
       id="path14"
       style="fill:#808080;stroke-width:1.39524186" />
    <path
       inkscape:connector-curvature="0"
       class="cls-1"
       d="m 114.60017,103.07711 a 4.5113795,4.5298066 0 0 0 -4.59492,4.51583 4.5531515,4.5717493 0 0 0 9.09238,0 4.5113795,4.5298066 0 0 0 -4.49746,-4.51583 z"
       id="path16"
       style="fill:#808080;stroke-width:1.39524186" />
    <path
       inkscape:connector-curvature="0"
       class="cls-1"
       d="m 88.868593,133.73719 c -2.784802,-0.27962 -4.497455,1.13245 -4.956948,4.19426 a 4.6088475,4.6276728 0 0 0 4.177203,4.76749 4.7202396,4.7395199 0 0 0 4.943024,-4.19427 4.3303673,4.3480551 0 0 0 -4.163279,-4.76748 z"
       id="path18"
       style="fill:#808080;stroke-width:1.39524186" />
    <path
       inkscape:connector-curvature="0"
       class="cls-1"
       d="m 131.94949,194.81967 a 4.4417594,4.4599022 0 1 0 0,8.90583 4.4417594,4.4599022 0 0 0 0,-8.90583 z"
       id="path20"
       style="fill:#808080;stroke-width:1.39524186" />
    <path
       inkscape:connector-curvature="0"
       class="cls-1"
       d="m 197.16956,116.19118 a 4.2607473,4.2781507 0 0 0 -4.44176,4.48786 4.3582153,4.3760169 0 0 0 4.49745,4.4599 c 2.38101,0.0979 4.81771,-2.27888 4.38607,-4.51582 a 4.1772032,4.1942654 0 0 0 -4.44176,-4.43194 z"
       id="path22"
       style="fill:#808080;stroke-width:1.39524186" />
    <path
       inkscape:connector-curvature="0"
       class="cls-1"
       d="m 162.37345,212.22587 a 4.5113829,4.52981 0 0 0 0,9.05962 4.5113829,4.52981 0 0 0 0,-9.05962 z"
       id="path24"
       style="fill:#808080;stroke-width:1.39524186" />
    <path
       inkscape:connector-curvature="0"
       class="cls-1"
       d="m 197.29487,146.69747 a 4.5117232,4.5301518 0 1 0 -0.11139,9.05961 4.5117232,4.5301518 0 0 0 0.11139,-9.05961 z"
       id="path26"
       style="fill:#808080;stroke-width:1.39524186" />
    <path
       inkscape:connector-curvature="0"
       class="cls-1"
       d="m 123.30268,137.94543 a 4.2607473,4.2781507 0 0 0 -4.44176,4.48787 4.0379631,4.0544566 0 0 0 4.35822,4.41796 c 2.35315,0.44739 4.65061,-2.05519 4.53922,-4.36204 a 4.5253035,4.5437875 0 0 0 -4.45568,-4.54379 z"
       id="path28"
       style="fill:#808080;stroke-width:1.39524186" />
    <path
       inkscape:connector-curvature="0"
       class="cls-1"
       d="m 171.03419,137.94543 a 4.4417594,4.4599022 0 0 0 -4.39999,4.57175 4.1772032,4.1942654 0 0 0 4.39999,4.33408 4.0379631,4.0544566 0 0 0 4.46961,-4.3201 4.2607473,4.2781507 0 0 0 -4.46961,-4.58573 z"
       id="path30"
       style="fill:#808080;stroke-width:1.39524186" />
    <path
       inkscape:connector-curvature="0"
       class="cls-1"
       d="m 73.900282,130.04623 c 0.236708,-0.90875 0.501264,-1.80353 0.779744,-2.68433 -0.27848,0.8808 -0.529112,1.77558 -0.779744,2.68433 z"
       id="path52"
       style="fill:#808080;stroke-width:1.39524186" />
    <path
       inkscape:connector-curvature="0"
       class="cls-1"
       d="m 75.515467,124.90127 c 0.111392,-0.33554 0.222784,-0.67108 0.3481,-0.99264 -0.125316,0.32156 -0.236708,0.6571 -0.3481,0.99264 z"
       id="path54"
       style="fill:#808080;stroke-width:1.39524186" />
    <path
       inkscape:connector-curvature="0"
       class="cls-1"
       d="m 76.852172,121.39207 0.501264,-1.2443 z"
       id="path56"
       style="fill:#808080;stroke-width:1.39524186" />
  </g>
</svg>
