<?xml version="1.0" encoding="UTF-8"?><svg xmlns="http://www.w3.org/2000/svg" xmlns:xlink="http://www.w3.org/1999/xlink" fill-opacity="1" color-rendering="auto" color-interpolation="auto" text-rendering="auto" stroke="black" stroke-linecap="square" width="1407" stroke-miterlimit="10" shape-rendering="auto" stroke-opacity="1" fill="black" stroke-dasharray="none" font-weight="normal" stroke-width="1" height="409" font-family="'Dialog'" font-style="normal" stroke-linejoin="miter" font-size="12px" stroke-dashoffset="0" image-rendering="auto">
  <!--Generated by ySVG 2.5-->
  <defs id="genericDefs"/>
  <g>
    <defs id="defs1">
      <clipPath clipPathUnits="userSpaceOnUse" id="clipPath1">
        <path d="M0 0 L1407 0 L1407 409 L0 409 L0 0 Z"/>
      </clipPath>
      <clipPath clipPathUnits="userSpaceOnUse" id="clipPath2">
        <path d="M-42 -470 L1365 -470 L1365 -61 L-42 -61 L-42 -470 Z"/>
      </clipPath>
    </defs>
    <g fill="white" text-rendering="geometricPrecision" shape-rendering="geometricPrecision" transform="matrix(1,0,0,1,42,470)" stroke="white">
      <rect x="-26.3917" y="-454.9691" clip-path="url(#clipPath2)" width="1375.4627" rx="4" ry="4" height="378.8516" stroke="none"/>
    </g>
    <g fill="rgb(7,43,57)" text-rendering="geometricPrecision" shape-rendering="geometricPrecision" transform="matrix(1,0,0,1,42,470)" stroke="rgb(7,43,57)">
      <rect x="-26.3917" width="1375.4627" height="33.1016" y="-454.9691" clip-path="url(#clipPath2)" stroke="none"/>
    </g>
    <g stroke-linecap="butt" font-size="25px" transform="matrix(1,0,0,1,42,470)" fill="white" text-rendering="geometricPrecision" font-family="sans-serif" shape-rendering="geometricPrecision" stroke="white" font-weight="bold" stroke-miterlimit="1.45">
      <text x="1087.0367" xml:space="preserve" y="-429.7635" clip-path="url(#clipPath2)" stroke="none">Docker Containers</text>
    </g>
    <g stroke-linecap="butt" transform="matrix(1,0,0,1,42,470)" fill="rgb(7,43,57)" text-rendering="geometricPrecision" shape-rendering="geometricPrecision" stroke="rgb(7,43,57)" stroke-width="2" stroke-miterlimit="1.45">
      <rect x="-26.3917" y="-454.9691" clip-path="url(#clipPath2)" fill="none" width="1375.4627" rx="4" ry="4" height="378.8516"/>
    </g>
    <g fill="rgb(54,12,22)" text-rendering="geometricPrecision" shape-rendering="geometricPrecision" transform="matrix(1,0,0,1,42,470)" stroke="rgb(54,12,22)">
      <path d="M879.6422 -137.1175 L1111.9547 -137.1175 L1137.7672 -114.1175 L1111.9547 -91.1175 L879.6422 -91.1175 L905.4547 -114.1175 Z" fill-rule="evenodd" clip-path="url(#clipPath2)" stroke="none"/>
    </g>
    <g text-rendering="geometricPrecision" stroke-miterlimit="1.45" stroke-width="2" shape-rendering="geometricPrecision" transform="matrix(1,0,0,1,42,470)" stroke-linecap="butt">
      <path fill="none" d="M879.6422 -137.1175 L1111.9547 -137.1175 L1137.7672 -114.1175 L1111.9547 -91.1175 L879.6422 -91.1175 L905.4547 -114.1175 Z" fill-rule="evenodd" clip-path="url(#clipPath2)"/>
    </g>
    <g stroke-linecap="butt" font-size="18px" transform="matrix(1,0,0,1,42,470)" fill="white" text-rendering="geometricPrecision" font-family="sans-serif" shape-rendering="geometricPrecision" stroke="white" font-weight="bold" stroke-miterlimit="1.45">
      <text x="910.9263" xml:space="preserve" y="-107.8861" clip-path="url(#clipPath2)" stroke="none">TEXT_GENE_MATCH</text>
    </g>
    <g fill="white" text-rendering="geometricPrecision" shape-rendering="geometricPrecision" transform="matrix(1,0,0,1,42,470)" stroke="white">
      <path d="M-11.3917 -406.8675 L322.6738 -406.8675 L359.7922 -383.8675 L322.6738 -360.8675 L-11.3917 -360.8675 L25.7267 -383.8675 Z" fill-rule="evenodd" clip-path="url(#clipPath2)" stroke="none"/>
    </g>
    <g text-rendering="geometricPrecision" stroke-miterlimit="1.45" stroke-width="2" shape-rendering="geometricPrecision" transform="matrix(1,0,0,1,42,470)" stroke-linecap="butt">
      <path fill="none" d="M-11.3917 -406.8675 L322.6738 -406.8675 L359.7922 -383.8675 L322.6738 -360.8675 L-11.3917 -360.8675 L25.7267 -383.8675 Z" fill-rule="evenodd" clip-path="url(#clipPath2)"/>
    </g>
    <g font-size="18px" stroke-linecap="butt" transform="matrix(1,0,0,1,42,470)" text-rendering="geometricPrecision" font-family="sans-serif" shape-rendering="geometricPrecision" font-weight="bold" stroke-miterlimit="1.45">
      <text x="27.4054" xml:space="preserve" y="-377.6361" clip-path="url(#clipPath2)" stroke="none">CREATE_FULL_TEXT_INDEXES</text>
    </g>
    <g fill="rgb(70,136,62)" text-rendering="geometricPrecision" shape-rendering="geometricPrecision" transform="matrix(1,0,0,1,42,470)" stroke="rgb(70,136,62)">
      <path d="M236.875 -275.8675 L361.3001 -275.8675 L375.1251 -252.8675 L361.3001 -229.8675 L236.875 -229.8675 L250.7 -252.8675 Z" fill-rule="evenodd" clip-path="url(#clipPath2)" stroke="none"/>
    </g>
    <g text-rendering="geometricPrecision" stroke-miterlimit="1.45" stroke-width="2" shape-rendering="geometricPrecision" transform="matrix(1,0,0,1,42,470)" stroke-linecap="butt">
      <path fill="none" d="M236.875 -275.8675 L361.3001 -275.8675 L375.1251 -252.8675 L361.3001 -229.8675 L236.875 -229.8675 L250.7 -252.8675 Z" fill-rule="evenodd" clip-path="url(#clipPath2)"/>
    </g>
    <g stroke-linecap="butt" font-size="18px" transform="matrix(1,0,0,1,42,470)" fill="white" text-rendering="geometricPrecision" font-family="sans-serif" shape-rendering="geometricPrecision" stroke="white" font-weight="bold" stroke-miterlimit="1.45">
      <text x="287.811" xml:space="preserve" y="-246.6361" clip-path="url(#clipPath2)" stroke="none">JHU</text>
    </g>
    <g fill="rgb(54,12,22)" text-rendering="geometricPrecision" shape-rendering="geometricPrecision" transform="matrix(1,0,0,1,42,470)" stroke="rgb(54,12,22)">
      <path d="M316.875 -406.8675 L457.725 -406.8675 L473.375 -383.8675 L457.725 -360.8675 L316.875 -360.8675 L332.525 -383.8675 Z" fill-rule="evenodd" clip-path="url(#clipPath2)" stroke="none"/>
    </g>
    <g text-rendering="geometricPrecision" stroke-miterlimit="1.45" stroke-width="2" shape-rendering="geometricPrecision" transform="matrix(1,0,0,1,42,470)" stroke-linecap="butt">
      <path fill="none" d="M316.875 -406.8675 L457.725 -406.8675 L473.375 -383.8675 L457.725 -360.8675 L316.875 -360.8675 L332.525 -383.8675 Z" fill-rule="evenodd" clip-path="url(#clipPath2)"/>
    </g>
    <g stroke-linecap="butt" font-size="18px" transform="matrix(1,0,0,1,42,470)" fill="white" text-rendering="geometricPrecision" font-family="sans-serif" shape-rendering="geometricPrecision" stroke="white" font-weight="bold" stroke-miterlimit="1.45">
      <text x="350.8105" xml:space="preserve" y="-377.6361" clip-path="url(#clipPath2)" stroke="none">BIOBASE</text>
    </g>
    <g fill="rgb(35,69,8)" text-rendering="geometricPrecision" shape-rendering="geometricPrecision" transform="matrix(1,0,0,1,42,470)" stroke="rgb(35,69,8)">
      <path d="M440.7815 -406.8675 L673.0939 -406.8675 L698.9066 -383.8675 L673.0939 -360.8675 L440.7815 -360.8675 L466.594 -383.8675 Z" fill-rule="evenodd" clip-path="url(#clipPath2)" stroke="none"/>
    </g>
    <g text-rendering="geometricPrecision" stroke-miterlimit="1.45" stroke-width="2" shape-rendering="geometricPrecision" transform="matrix(1,0,0,1,42,470)" stroke-linecap="butt">
      <path fill="none" d="M440.7815 -406.8675 L673.0939 -406.8675 L698.9066 -383.8675 L673.0939 -360.8675 L440.7815 -360.8675 L466.594 -383.8675 Z" fill-rule="evenodd" clip-path="url(#clipPath2)"/>
    </g>
    <g stroke-linecap="butt" font-size="18px" transform="matrix(1,0,0,1,42,470)" fill="white" text-rendering="geometricPrecision" font-family="sans-serif" shape-rendering="geometricPrecision" stroke="white" font-weight="bold" stroke-miterlimit="1.45">
      <text x="469.4158" xml:space="preserve" y="-377.6361" clip-path="url(#clipPath2)" stroke="none">LENS-PATENT-DATA</text>
    </g>
    <g fill="rgb(7,43,57)" text-rendering="geometricPrecision" shape-rendering="geometricPrecision" transform="matrix(1,0,0,1,42,470)" stroke="rgb(7,43,57)">
      <path d="M670.719 -406.8675 L806.844 -406.8675 L821.969 -383.8675 L806.844 -360.8675 L670.719 -360.8675 L685.844 -383.8675 Z" fill-rule="evenodd" clip-path="url(#clipPath2)" stroke="none"/>
    </g>
    <g text-rendering="geometricPrecision" stroke-miterlimit="1.45" stroke-width="2" shape-rendering="geometricPrecision" transform="matrix(1,0,0,1,42,470)" stroke-linecap="butt">
      <path fill="none" d="M670.719 -406.8675 L806.844 -406.8675 L821.969 -383.8675 L806.844 -360.8675 L670.719 -360.8675 L685.844 -383.8675 Z" fill-rule="evenodd" clip-path="url(#clipPath2)"/>
    </g>
    <g stroke-linecap="butt" font-size="18px" transform="matrix(1,0,0,1,42,470)" fill="white" text-rendering="geometricPrecision" font-family="sans-serif" shape-rendering="geometricPrecision" stroke="white" font-weight="bold" stroke-miterlimit="1.45">
      <text x="701.4275" xml:space="preserve" y="-377.6361" clip-path="url(#clipPath2)" stroke="none">CORD-19</text>
    </g>
    <g fill="rgb(7,43,57)" text-rendering="geometricPrecision" shape-rendering="geometricPrecision" transform="matrix(1,0,0,1,42,470)" stroke="rgb(7,43,57)">
      <path d="M784.5546 -275.8675 L959.3796 -275.8675 L978.8046 -252.8675 L959.3796 -229.8675 L784.5546 -229.8675 L803.9796 -252.8675 Z" fill-rule="evenodd" clip-path="url(#clipPath2)" stroke="none"/>
    </g>
    <g text-rendering="geometricPrecision" stroke-miterlimit="1.45" stroke-width="2" shape-rendering="geometricPrecision" transform="matrix(1,0,0,1,42,470)" stroke-linecap="butt">
      <path fill="none" d="M784.5546 -275.8675 L959.3796 -275.8675 L978.8046 -252.8675 L959.3796 -229.8675 L784.5546 -229.8675 L803.9796 -252.8675 Z" fill-rule="evenodd" clip-path="url(#clipPath2)"/>
    </g>
    <g stroke-linecap="butt" font-size="18px" transform="matrix(1,0,0,1,42,470)" fill="white" text-rendering="geometricPrecision" font-family="sans-serif" shape-rendering="geometricPrecision" stroke="white" font-weight="bold" stroke-miterlimit="1.45">
      <text x="803.9184" xml:space="preserve" y="-246.6361" clip-path="url(#clipPath2)" stroke="none">TEXT_FRAGGER</text>
    </g>
    <g fill="rgb(54,12,22)" text-rendering="geometricPrecision" shape-rendering="geometricPrecision" transform="matrix(1,0,0,1,42,470)" stroke="rgb(54,12,22)">
      <path d="M1053.3212 -406.8675 L1305.9967 -406.8675 L1334.0713 -383.8675 L1305.9967 -360.8675 L1053.3212 -360.8675 L1081.396 -383.8675 Z" fill-rule="evenodd" clip-path="url(#clipPath2)" stroke="none"/>
    </g>
    <g text-rendering="geometricPrecision" stroke-miterlimit="1.45" stroke-width="2" shape-rendering="geometricPrecision" transform="matrix(1,0,0,1,42,470)" stroke-linecap="butt">
      <path fill="none" d="M1053.3212 -406.8675 L1305.9967 -406.8675 L1334.0713 -383.8675 L1305.9967 -360.8675 L1053.3212 -360.8675 L1081.396 -383.8675 Z" fill-rule="evenodd" clip-path="url(#clipPath2)"/>
    </g>
    <g stroke-linecap="butt" font-size="18px" transform="matrix(1,0,0,1,42,470)" fill="white" text-rendering="geometricPrecision" font-family="sans-serif" shape-rendering="geometricPrecision" stroke="white" font-weight="bold" stroke-miterlimit="1.45">
      <text x="1086.1" xml:space="preserve" y="-377.6361" clip-path="url(#clipPath2)" stroke="none">HELOMICS_HETIONET</text>
    </g>
    <g fill="rgb(90,16,40)" text-rendering="geometricPrecision" shape-rendering="geometricPrecision" transform="matrix(1,0,0,1,42,470)" stroke="rgb(90,16,40)">
      <path d="M791.8397 -406.8675 L1053.7289 -406.8675 L1082.8262 -383.8675 L1053.7289 -360.8675 L791.8397 -360.8675 L820.9389 -383.8675 Z" fill-rule="evenodd" clip-path="url(#clipPath2)" stroke="none"/>
    </g>
    <g text-rendering="geometricPrecision" stroke-miterlimit="1.45" stroke-width="2" shape-rendering="geometricPrecision" transform="matrix(1,0,0,1,42,470)" stroke-linecap="butt">
      <path fill="none" d="M791.8397 -406.8675 L1053.7289 -406.8675 L1082.8262 -383.8675 L1053.7289 -360.8675 L791.8397 -360.8675 L820.9389 -383.8675 Z" fill-rule="evenodd" clip-path="url(#clipPath2)"/>
    </g>
    <g stroke-linecap="butt" font-size="18px" transform="matrix(1,0,0,1,42,470)" fill="white" text-rendering="geometricPrecision" font-family="sans-serif" shape-rendering="geometricPrecision" stroke="white" font-weight="bold" stroke-miterlimit="1.45">
      <text x="824.8551" xml:space="preserve" y="-377.6361" clip-path="url(#clipPath2)" stroke="none">CLINICAL_TRIALS_GOV</text>
    </g>
    <g fill="rgb(51,51,51)" text-rendering="geometricPrecision" shape-rendering="geometricPrecision" transform="matrix(1,0,0,1,42,470)" stroke="rgb(51,51,51)">
      <path d="M955.8607 -275.8675 L1130.6857 -275.8675 L1150.1107 -252.8675 L1130.6857 -229.8675 L955.8607 -229.8675 L975.2857 -252.8675 Z" fill-rule="evenodd" clip-path="url(#clipPath2)" stroke="none"/>
    </g>
    <g text-rendering="geometricPrecision" stroke-miterlimit="1.45" stroke-width="2" shape-rendering="geometricPrecision" transform="matrix(1,0,0,1,42,470)" stroke-linecap="butt">
      <path fill="none" d="M955.8607 -275.8675 L1130.6857 -275.8675 L1150.1107 -252.8675 L1130.6857 -229.8675 L955.8607 -229.8675 L975.2857 -252.8675 Z" fill-rule="evenodd" clip-path="url(#clipPath2)"/>
    </g>
    <g stroke-linecap="butt" font-size="18px" transform="matrix(1,0,0,1,42,470)" fill="white" text-rendering="geometricPrecision" font-family="sans-serif" shape-rendering="geometricPrecision" stroke="white" font-weight="bold" stroke-miterlimit="1.45">
      <text x="1009.0493" xml:space="preserve" y="-246.6361" clip-path="url(#clipPath2)" stroke="none">BIOBERT</text>
      <text x="-8.2564" y="-98.4179" clip-path="url(#clipPath2)" fill="rgb(7,43,57)" stroke="none" font-weight="normal" xml:space="preserve">PIPELINE v1.0</text>
    </g>
    <g stroke-linecap="butt" transform="matrix(1,0,0,1,42,470)" fill="rgb(70,136,62)" text-rendering="geometricPrecision" shape-rendering="geometricPrecision" stroke="rgb(70,136,62)" stroke-width="2" stroke-miterlimit="1.45">
      <path fill="none" d="M178.3867 -360.849 L178.3867 -328.3675 L179.0117 -323.9925 L180.8867 -320.8675 L184.0117 -318.9925 L188.3867 -318.3675 L281 -318.3675 L285.375 -317.7425 L288.5 -315.8675 L290.375 -312.7425 L291 -308.3675 L291 -275.909" clip-path="url(#clipPath2)"/>
      <path fill="none" d="M395.125 -360.8659 L395.125 -167.1175 L395.75 -162.7425 L397.625 -159.6175 L400.75 -157.7425 L405.125 -157.1175 L957.8222 -157.1175 L962.1972 -156.4925 L965.3222 -154.6175 L967.1972 -151.4925 L967.8222 -147.1175 L967.8222 -137.088" clip-path="url(#clipPath2)" stroke="rgb(54,12,22)"/>
      <path fill="none" d="M524.9742 -360.8643 L524.9742 -186.3009 L525.5992 -181.9259 L527.4742 -178.8009 L530.5992 -176.9259 L534.9742 -176.3009 L979.212 -176.3009 L983.587 -175.6759 L986.712 -173.8009 L988.587 -170.6759 L989.212 -166.3009 L989.212 -137.1204" clip-path="url(#clipPath2)" stroke="rgb(54,12,22)"/>
      <path fill="none" d="M730.8568 -360.8412 L730.8568 -205.0509 L731.4818 -200.6759 L733.3568 -197.5509 L736.4818 -195.6759 L740.8568 -195.0509 L1019.7136 -195.0509 L1024.0886 -194.4259 L1027.2136 -192.5509 L1029.0886 -189.4259 L1029.7136 -185.0509 L1029.7136 -137.1439" clip-path="url(#clipPath2)" stroke="rgb(54,12,22)"/>
      <path fill="none" d="M758.615 -360.8185 L758.615 -320.3741 L759.24 -315.9991 L761.115 -312.8741 L764.24 -310.9991 L768.615 -310.3741 L824.1796 -310.3741 L828.5546 -309.7491 L831.6796 -307.8741 L833.5546 -304.7491 L834.1796 -300.3741 L834.1796 -275.861" clip-path="url(#clipPath2)" stroke="rgb(7,43,57)"/>
      <path fill="none" d="M539.0369 -360.8418 L539.0369 -305.8675 L539.6619 -301.4925 L541.5369 -298.3675 L544.6619 -296.4925 L549.0369 -295.8675 L807.2296 -295.8675 L811.6046 -295.2427 L814.7296 -293.3684 L816.6046 -290.2445 L817.2296 -285.871 L817.2296 -275.8744" clip-path="url(#clipPath2)" stroke="rgb(7,43,57)"/>
      <path fill="none" d="M889.7296 -229.8904 L889.7296 -223.0956 L890.3546 -220.1229 L892.2296 -217.9996 L895.3546 -216.7255 L899.7296 -216.3009 L1037.1373 -216.3009 L1041.5123 -215.6759 L1044.6373 -213.8009 L1046.5123 -210.6759 L1047.1373 -206.3009 L1047.1373 -137.1588" clip-path="url(#clipPath2)" stroke="rgb(54,12,22)"/>
      <path fill="none" d="M775.1611 -360.8651 L775.1611 -341.3215 L775.7861 -336.9465 L777.6611 -333.8215 L780.7861 -331.9465 L785.1611 -331.3215 L988.1608 -331.3215 L992.5358 -330.6965 L995.6608 -328.8215 L997.5358 -325.6965 L998.1608 -321.3215 L998.1608 -275.8847" clip-path="url(#clipPath2)" stroke="rgb(51,51,51)"/>
    </g>
  </g>
</svg>
